<svg width="171" height="145" viewBox="0 0 171 145" fill="none" xmlns="http://www.w3.org/2000/svg">
<g clip-path="url(#clip0)">
<g filter="url(#filter0_d)">
<path fill-rule="evenodd" clip-rule="evenodd" d="M46.3437 2.0311H149.094C160.139 2.0311 169.094 10.9855 169.094 22.0311V119.531C169.094 130.577 160.139 139.531 149.094 139.531H46.3437C35.2981 139.531 26.3438 130.577 26.3438 119.531V22.0311C26.3438 10.9855 35.2981 2.0311 46.3437 2.0311Z" fill="#FF0066"/>
</g>
<path fill-rule="evenodd" clip-rule="evenodd" d="M97.2812 71.6874C99.266 71.6874 100.875 73.2894 100.875 75.2656C100.875 77.2417 99.266 78.8436 97.2812 78.8436C95.2965 78.8436 93.6875 77.2417 93.6875 75.2656C93.6875 73.2894 95.2965 71.6874 97.2812 71.6874Z" fill="#F6DBDE"/>
<path fill-rule="evenodd" clip-rule="evenodd" d="M67.6406 114.531C69.6168 114.531 71.2187 116.133 71.2187 118.109C71.2187 120.085 69.6168 121.687 67.6406 121.687C65.6645 121.687 64.0625 120.085 64.0625 118.109C64.0625 116.133 65.6645 114.531 67.6406 114.531Z" fill="#F6DBDE"/>
<path fill-rule="evenodd" clip-rule="evenodd" d="M79.3125 27.9062C81.2972 27.9062 82.9062 29.5081 82.9062 31.4842C82.9062 33.4604 81.2972 35.0624 79.3125 35.0624C77.3277 35.0624 75.7187 33.4604 75.7187 31.4842C75.7187 29.5081 77.3277 27.9062 79.3125 27.9062Z" fill="#F6DBDE"/>
<path fill-rule="evenodd" clip-rule="evenodd" d="M137.687 13.6249C139.672 13.6249 141.281 15.227 141.281 17.203C141.281 19.1791 139.672 20.7812 137.687 20.7812C135.703 20.7812 134.094 19.1791 134.094 17.203C134.094 15.227 135.703 13.6249 137.687 13.6249Z" fill="#F6DBDE"/>
<path fill-rule="evenodd" clip-rule="evenodd" d="M142.156 35.0624C143.641 35.0624 144.844 36.2656 144.844 37.7499C144.844 39.2342 143.641 40.4374 142.156 40.4374C140.672 40.4374 139.469 39.2342 139.469 37.7499C139.469 36.2656 140.672 35.0624 142.156 35.0624Z" fill="white"/>
<path fill-rule="evenodd" clip-rule="evenodd" d="M145.75 65.4062C147.234 65.4062 148.437 66.6164 148.437 68.1092C148.437 69.6022 147.234 70.8123 145.75 70.8123C144.266 70.8123 143.062 69.6022 143.062 68.1092C143.062 66.6164 144.266 65.4062 145.75 65.4062Z" fill="white"/>
<path fill-rule="evenodd" clip-rule="evenodd" d="M158.328 13.6249C159.821 13.6249 161.031 14.8351 161.031 16.3281C161.031 17.821 159.821 19.0312 158.328 19.0312C156.835 19.0312 155.625 17.821 155.625 16.3281C155.625 14.8351 156.835 13.6249 158.328 13.6249Z" fill="white"/>
<path fill-rule="evenodd" clip-rule="evenodd" d="M156.531 93.0937C158.016 93.0937 159.219 94.2969 159.219 95.7812C159.219 97.2654 158.016 98.4687 156.531 98.4687C155.047 98.4687 153.844 97.2654 153.844 95.7812C153.844 94.2969 155.047 93.0937 156.531 93.0937Z" fill="white"/>
<path fill-rule="evenodd" clip-rule="evenodd" d="M118.812 59.1562C120.297 59.1562 121.5 60.3664 121.5 61.8594C121.5 63.3521 120.297 64.5625 118.812 64.5625C117.328 64.5625 116.125 63.3521 116.125 61.8594C116.125 60.3664 117.328 59.1562 118.812 59.1562Z" fill="white"/>
<path fill-rule="evenodd" clip-rule="evenodd" d="M93.6719 96.6561C95.1648 96.6561 96.375 97.8594 96.375 99.3437C96.375 100.828 95.1648 102.031 93.6719 102.031C92.179 102.031 90.9687 100.828 90.9687 99.3437C90.9687 97.8594 92.179 96.6561 93.6719 96.6561Z" fill="white"/>
<path fill-rule="evenodd" clip-rule="evenodd" d="M122.406 89.5312C123.891 89.5312 125.094 90.7344 125.094 92.2187C125.094 93.703 123.891 94.9062 122.406 94.9062C120.922 94.9062 119.719 93.703 119.719 92.2187C119.719 90.7344 120.922 89.5312 122.406 89.5312Z" fill="white"/>
<path fill-rule="evenodd" clip-rule="evenodd" d="M59.5625 13.6249C61.0467 13.6249 62.25 14.8281 62.25 16.3124C62.25 17.7967 61.0467 18.9999 59.5625 18.9999C58.0782 18.9999 56.875 17.7967 56.875 16.3124C56.875 14.8281 58.0782 13.6249 59.5625 13.6249Z" fill="white"/>
<path fill-rule="evenodd" clip-rule="evenodd" d="M41.5937 27.9062C43.078 27.9062 44.2812 29.1094 44.2812 30.5937C44.2812 32.078 43.078 33.2812 41.5937 33.2812C40.1095 33.2812 38.9063 32.078 38.9063 30.5937C38.9063 29.1094 40.1095 27.9062 41.5937 27.9062Z" fill="white"/>
<path fill-rule="evenodd" clip-rule="evenodd" d="M107.141 10.9686C108.634 10.9686 109.844 12.1649 109.844 13.6406C109.844 15.1161 108.634 16.3124 107.141 16.3124C105.648 16.3124 104.437 15.1161 104.437 13.6406C104.437 12.1649 105.648 10.9686 107.141 10.9686Z" fill="white"/>
<path fill-rule="evenodd" clip-rule="evenodd" d="M103.562 39.5625C105.047 39.5625 106.25 40.7586 106.25 42.2343C106.25 43.71 105.047 44.9061 103.562 44.9061C102.078 44.9061 100.875 43.71 100.875 42.2343C100.875 40.7586 102.078 39.5625 103.562 39.5625Z" fill="white"/>
<path fill-rule="evenodd" clip-rule="evenodd" d="M81.1094 56.4999C82.6023 56.4999 83.8125 57.7031 83.8125 59.1874C83.8125 60.6717 82.6023 61.8749 81.1094 61.8749C79.6165 61.8749 78.4062 60.6717 78.4062 59.1874C78.4062 57.7031 79.6165 56.4999 81.1094 56.4999Z" fill="white"/>
</g>
<g clip-path="url(#clip1)">
<path d="M86.205 131.901C86.1044 131.901 86.0189 131.866 85.9485 131.796C85.8781 131.725 85.8429 131.64 85.8429 131.539V121.702C85.8429 121.591 85.8781 121.506 85.9485 121.446C86.0189 121.375 86.1044 121.34 86.205 121.34H87.6232C87.7339 121.34 87.8194 121.375 87.8797 121.446C87.9501 121.506 87.9854 121.591 87.9854 121.702V131.539C87.9854 131.64 87.9501 131.725 87.8797 131.796C87.8194 131.866 87.7339 131.901 87.6232 131.901H86.205ZM90.5326 131.901C90.432 131.901 90.3465 131.866 90.2761 131.796C90.2057 131.725 90.1705 131.64 90.1705 131.539V124.418C90.1705 124.317 90.2057 124.232 90.2761 124.161C90.3465 124.091 90.432 124.056 90.5326 124.056H95.3154C95.426 124.056 95.5115 124.091 95.5718 124.161C95.6423 124.222 95.6775 124.307 95.6775 124.418V125.278C95.6775 125.389 95.6423 125.479 95.5718 125.549C95.5014 125.62 95.4159 125.655 95.3154 125.655H92.1469V131.539C92.1469 131.64 92.1117 131.725 92.0413 131.796C91.981 131.866 91.8955 131.901 91.7848 131.901H90.5326ZM97.2664 134.768C97.1658 134.768 97.0803 134.733 97.0099 134.662C96.9395 134.602 96.9043 134.517 96.9043 134.406V124.418C96.9043 124.307 96.9395 124.222 97.0099 124.161C97.0803 124.091 97.1658 124.056 97.2664 124.056H98.4583C98.5689 124.056 98.6544 124.091 98.7148 124.161C98.7852 124.222 98.8204 124.307 98.8204 124.418V125.021C99.3837 124.277 100.188 123.905 101.234 123.905C102.25 123.905 103.03 124.227 103.573 124.871C104.116 125.504 104.408 126.364 104.448 127.451C104.458 127.571 104.463 127.747 104.463 127.979C104.463 128.22 104.458 128.401 104.448 128.522C104.408 129.578 104.116 130.433 103.573 131.087C103.03 131.73 102.25 132.052 101.234 132.052C100.219 132.052 99.444 131.695 98.9109 130.981V134.406C98.9109 134.517 98.8757 134.602 98.8053 134.662C98.745 134.733 98.6595 134.768 98.5488 134.768H97.2664ZM100.676 130.438C101.762 130.438 102.341 129.769 102.411 128.431C102.421 128.331 102.426 128.18 102.426 127.979C102.426 127.777 102.421 127.627 102.411 127.526C102.341 126.188 101.762 125.519 100.676 125.519C100.093 125.519 99.6603 125.705 99.3786 126.078C99.097 126.45 98.9411 126.907 98.9109 127.451L98.8958 128.024L98.9109 128.612C98.931 129.115 99.0869 129.548 99.3786 129.91C99.6804 130.262 100.113 130.438 100.676 130.438ZM108.435 132.052C107.922 132.052 107.449 131.952 107.017 131.75C106.594 131.539 106.257 131.258 106.006 130.906C105.765 130.554 105.644 130.166 105.644 129.744C105.644 129.06 105.921 128.507 106.474 128.084C107.027 127.662 107.786 127.375 108.752 127.224L110.819 126.922V126.606C110.819 126.163 110.708 125.831 110.487 125.61C110.266 125.389 109.909 125.278 109.416 125.278C109.084 125.278 108.812 125.343 108.601 125.474C108.4 125.595 108.239 125.715 108.118 125.836C107.998 125.967 107.917 126.052 107.877 126.093C107.837 126.213 107.761 126.274 107.651 126.274H106.489C106.398 126.274 106.318 126.244 106.247 126.183C106.187 126.123 106.157 126.042 106.157 125.942C106.167 125.69 106.288 125.404 106.519 125.082C106.76 124.76 107.128 124.483 107.62 124.252C108.113 124.021 108.717 123.905 109.431 123.905C110.618 123.905 111.483 124.171 112.026 124.705C112.569 125.238 112.841 125.937 112.841 126.802V131.539C112.841 131.64 112.806 131.725 112.735 131.796C112.675 131.866 112.589 131.901 112.479 131.901H111.257C111.156 131.901 111.07 131.866 111 131.796C110.93 131.725 110.894 131.64 110.894 131.539V130.951C110.673 131.273 110.356 131.539 109.944 131.75C109.542 131.952 109.039 132.052 108.435 132.052ZM108.948 130.619C109.501 130.619 109.954 130.438 110.306 130.076C110.658 129.714 110.834 129.186 110.834 128.492V128.175L109.325 128.416C108.742 128.507 108.299 128.652 107.998 128.854C107.706 129.055 107.56 129.301 107.56 129.593C107.56 129.915 107.696 130.166 107.967 130.347C108.239 130.528 108.566 130.619 108.948 130.619ZM115.138 131.901C115.038 131.901 114.952 131.866 114.882 131.796C114.811 131.725 114.776 131.64 114.776 131.539V124.418C114.776 124.317 114.811 124.232 114.882 124.161C114.952 124.091 115.038 124.056 115.138 124.056H116.33C116.441 124.056 116.526 124.091 116.587 124.161C116.657 124.222 116.692 124.307 116.692 124.418V130.302H118.956V124.418C118.956 124.307 118.991 124.222 119.061 124.161C119.132 124.091 119.217 124.056 119.318 124.056H120.404C120.515 124.056 120.6 124.091 120.66 124.161C120.731 124.222 120.766 124.307 120.766 124.418V130.302H123.029V124.418C123.029 124.307 123.064 124.222 123.135 124.161C123.205 124.091 123.291 124.056 123.391 124.056H124.583C124.684 124.056 124.769 124.091 124.84 124.161C124.91 124.232 124.945 124.317 124.945 124.418V131.539C124.945 131.64 124.91 131.725 124.84 131.796C124.769 131.866 124.684 131.901 124.583 131.901H115.138ZM134.203 131.434C134.253 131.484 134.278 131.549 134.278 131.63C134.278 131.71 134.248 131.776 134.188 131.826C134.128 131.876 134.052 131.901 133.962 131.901H132.438C132.277 131.901 132.136 131.826 132.015 131.675L130.054 128.718H128.937V131.539C128.937 131.64 128.902 131.725 128.832 131.796C128.761 131.866 128.676 131.901 128.575 131.901H127.338C127.238 131.901 127.152 131.866 127.082 131.796C127.011 131.725 126.976 131.64 126.976 131.539V124.418C126.976 124.317 127.011 124.232 127.082 124.161C127.152 124.091 127.238 124.056 127.338 124.056H128.575C128.676 124.056 128.761 124.091 128.832 124.161C128.902 124.232 128.937 124.317 128.937 124.418V127.119H130.054L131.864 124.297C131.925 124.217 131.985 124.156 132.046 124.116C132.106 124.076 132.186 124.056 132.287 124.056H133.63C133.73 124.056 133.811 124.081 133.871 124.131C133.931 124.182 133.962 124.247 133.962 124.327C133.962 124.388 133.937 124.453 133.886 124.524L131.729 127.843L134.203 131.434ZM142.747 124.056C142.838 124.056 142.918 124.091 142.988 124.161C143.059 124.222 143.094 124.297 143.094 124.388V131.539C143.094 131.64 143.059 131.725 142.988 131.796C142.918 131.866 142.833 131.901 142.732 131.901H141.48C141.379 131.901 141.294 131.866 141.223 131.796C141.153 131.725 141.118 131.64 141.118 131.539V126.696L137.497 131.66C137.406 131.821 137.27 131.901 137.089 131.901H135.942C135.852 131.901 135.771 131.871 135.701 131.811C135.631 131.74 135.595 131.655 135.595 131.554V124.418C135.595 124.317 135.631 124.232 135.701 124.161C135.771 124.091 135.857 124.056 135.958 124.056H137.21C137.32 124.056 137.406 124.091 137.466 124.161C137.537 124.222 137.572 124.307 137.572 124.418V129.276L141.193 124.297C141.304 124.136 141.439 124.056 141.6 124.056H142.747Z" fill="white"/>
</g>
<defs>
<filter id="filter0_d" x="16.3438" y="-7.96887" width="162.75" height="157.5" filterUnits="userSpaceOnUse" color-interpolation-filters="sRGB">
<feFlood flood-opacity="0" result="BackgroundImageFix"/>
<feColorMatrix in="SourceAlpha" type="matrix" values="0 0 0 0 0 0 0 0 0 0 0 0 0 0 0 0 0 0 127 0"/>
<feOffset/>
<feGaussianBlur stdDeviation="5"/>
<feColorMatrix type="matrix" values="0 0 0 0 0 0 0 0 0 0 0 0 0 0 0 0 0 0 0.15 0"/>
<feBlend mode="normal" in2="BackgroundImageFix" result="effect1_dropShadow"/>
<feBlend mode="normal" in="SourceGraphic" in2="effect1_dropShadow" result="shape"/>
</filter>
<clipPath id="clip0">
<rect width="171" height="145" fill="white"/>
</clipPath>
<clipPath id="clip1">
<rect width="59" height="14" fill="white" transform="translate(85 118)"/>
</clipPath>
</defs>
</svg>
