<svg width="178" height="146" viewBox="0 0 178 146" fill="none" xmlns="http://www.w3.org/2000/svg">
<g clip-path="url(#clip0)">
<g filter="url(#filter0_d)">
<path fill-rule="evenodd" clip-rule="evenodd" d="M53.2188 2.90619H156.875C167.921 2.90619 176.875 11.8604 176.875 22.9062V122.187C176.875 133.233 167.921 142.187 156.875 142.187H53.2188C42.173 142.187 33.2187 133.233 33.2187 122.187V22.9062C33.2187 11.8604 42.173 2.90619 53.2188 2.90619Z" fill="#FF0066"/>
</g>
<path fill-rule="evenodd" clip-rule="evenodd" d="M79.0156 85.9374C80.9917 85.9374 82.5937 87.5394 82.5937 89.5156C82.5937 91.4917 80.9917 93.0936 79.0156 93.0936C77.0395 93.0936 75.4375 91.4917 75.4375 89.5156C75.4375 87.5394 77.0395 85.9374 79.0156 85.9374Z" fill="#3FD5FA"/>
<path fill-rule="evenodd" clip-rule="evenodd" d="M108.656 100.219C110.641 100.219 112.25 101.821 112.25 103.797C112.25 105.773 110.641 107.375 108.656 107.375C106.671 107.375 105.062 105.773 105.062 103.797C105.062 101.821 106.671 100.219 108.656 100.219Z" fill="#3FD5FA"/>
<path fill-rule="evenodd" clip-rule="evenodd" d="M145.469 78.8125C147.454 78.8125 149.062 80.4073 149.062 82.3749C149.062 84.3424 147.454 85.9374 145.469 85.9374C143.484 85.9374 141.875 84.3424 141.875 82.3749C141.875 80.4073 143.484 78.8125 145.469 78.8125Z" fill="#3FD5FA"/>
<path fill-rule="evenodd" clip-rule="evenodd" d="M86.1875 28.7811C88.1723 28.7811 89.7812 30.3832 89.7812 32.3593C89.7812 34.3355 88.1723 35.9374 86.1875 35.9374C84.2027 35.9374 82.5937 34.3355 82.5937 32.3593C82.5937 30.3832 84.2027 28.7811 86.1875 28.7811Z" fill="#3FD5FA"/>
<path fill-rule="evenodd" clip-rule="evenodd" d="M58.375 127.906C60.3598 127.906 61.9688 129.501 61.9688 131.469C61.9688 133.436 60.3598 135.031 58.375 135.031C56.3902 135.031 54.7812 133.436 54.7812 131.469C54.7812 129.501 56.3902 127.906 58.375 127.906Z" fill="#3FD5FA"/>
<path fill-rule="evenodd" clip-rule="evenodd" d="M144.562 14.4999C146.547 14.4999 148.156 16.0949 148.156 18.0624C148.156 20.0299 146.547 21.6249 144.562 21.6249C142.578 21.6249 140.969 20.0299 140.969 18.0624C140.969 16.0949 142.578 14.4999 144.562 14.4999Z" fill="#3FD5FA"/>
<path fill-rule="evenodd" clip-rule="evenodd" d="M137.375 41.2811C138.859 41.2811 140.062 42.4774 140.062 43.9531C140.062 45.4286 138.859 46.6249 137.375 46.6249C135.891 46.6249 134.687 45.4286 134.687 43.9531C134.687 42.4774 135.891 41.2811 137.375 41.2811Z" fill="white"/>
<path fill-rule="evenodd" clip-rule="evenodd" d="M117.625 76.0937C119.109 76.0937 120.312 77.2898 120.312 78.7655C120.312 80.2412 119.109 81.4375 117.625 81.4375C116.141 81.4375 114.937 80.2412 114.937 78.7655C114.937 77.2898 116.141 76.0937 117.625 76.0937Z" fill="white"/>
<path fill-rule="evenodd" clip-rule="evenodd" d="M101.469 133.219C102.953 133.219 104.156 134.422 104.156 135.906C104.156 137.39 102.953 138.594 101.469 138.594C99.9845 138.594 98.7812 137.39 98.7812 135.906C98.7812 134.422 99.9845 133.219 101.469 133.219Z" fill="white"/>
<path fill-rule="evenodd" clip-rule="evenodd" d="M80.8125 117.156C82.2968 117.156 83.5 118.359 83.5 119.844C83.5 121.328 82.2968 122.531 80.8125 122.531C79.3282 122.531 78.125 121.328 78.125 119.844C78.125 118.359 79.3282 117.156 80.8125 117.156Z" fill="white"/>
<path fill-rule="evenodd" clip-rule="evenodd" d="M159.828 53.7812C161.321 53.7812 162.531 54.9775 162.531 56.453C162.531 57.9287 161.321 59.1249 159.828 59.1249C158.335 59.1249 157.125 57.9287 157.125 56.453C157.125 54.9775 158.335 53.7812 159.828 53.7812Z" fill="white"/>
<path fill-rule="evenodd" clip-rule="evenodd" d="M83.5 56.4686C84.9842 56.4686 86.1875 57.6649 86.1875 59.1406C86.1875 60.6161 84.9842 61.8124 83.5 61.8124C82.0157 61.8124 80.8125 60.6161 80.8125 59.1406C80.8125 57.6649 82.0157 56.4686 83.5 56.4686Z" fill="white"/>
<path fill-rule="evenodd" clip-rule="evenodd" d="M49.3906 94.8749C50.8835 94.8749 52.0937 96.0712 52.0937 97.5468C52.0937 99.0224 50.8835 100.219 49.3906 100.219C47.8977 100.219 46.6875 99.0224 46.6875 97.5468C46.6875 96.0712 47.8977 94.8749 49.3906 94.8749Z" fill="white"/>
<path fill-rule="evenodd" clip-rule="evenodd" d="M46.6875 43.9686C48.1717 43.9686 49.375 45.1649 49.375 46.6406C49.375 48.1161 48.1717 49.3124 46.6875 49.3124C45.2032 49.3124 44 48.1161 44 46.6406C44 45.1649 45.2032 43.9686 46.6875 43.9686Z" fill="white"/>
<path fill-rule="evenodd" clip-rule="evenodd" d="M66.4375 14.4999C67.9217 14.4999 69.125 15.6962 69.125 17.1718C69.125 18.6474 67.9217 19.8437 66.4375 19.8437C64.9532 19.8437 63.75 18.6474 63.75 17.1718C63.75 15.6962 64.9532 14.4999 66.4375 14.4999Z" fill="white"/>
<path fill-rule="evenodd" clip-rule="evenodd" d="M114.031 11.8124C115.516 11.8124 116.719 13.0157 116.719 14.4999C116.719 15.9842 115.516 17.1875 114.031 17.1875C112.547 17.1875 111.344 15.9842 111.344 14.4999C111.344 13.0157 112.547 11.8124 114.031 11.8124Z" fill="white"/>
<path fill-rule="evenodd" clip-rule="evenodd" d="M114.031 56.4686C115.516 56.4686 116.719 57.6649 116.719 59.1406C116.719 60.6161 115.516 61.8124 114.031 61.8124C112.547 61.8124 111.344 60.6161 111.344 59.1406C111.344 57.6649 112.547 56.4686 114.031 56.4686Z" fill="white"/>
</g>
<g clip-path="url(#clip1)">
<path d="M125.902 132.05C124.535 132.05 123.469 131.703 122.705 131.01C121.941 130.316 121.539 129.285 121.499 127.918C121.489 127.627 121.484 127.199 121.484 126.636C121.484 126.063 121.489 125.631 121.499 125.339C121.539 124.002 121.951 122.977 122.736 122.263C123.52 121.549 124.575 121.192 125.902 121.192C127.23 121.192 128.285 121.549 129.069 122.263C129.864 122.977 130.281 124.002 130.321 125.339C130.341 125.922 130.351 126.355 130.351 126.636C130.351 126.908 130.341 127.335 130.321 127.918C130.271 129.285 129.864 130.316 129.1 131.01C128.336 131.703 127.27 132.05 125.902 132.05ZM125.902 130.316C126.576 130.316 127.114 130.115 127.516 129.713C127.918 129.301 128.134 128.677 128.165 127.843C128.185 127.24 128.195 126.832 128.195 126.621C128.195 126.39 128.185 125.983 128.165 125.4C128.134 124.565 127.918 123.947 127.516 123.545C127.114 123.133 126.576 122.926 125.902 122.926C125.239 122.926 124.706 123.133 124.304 123.545C123.902 123.947 123.686 124.565 123.655 125.4C123.645 125.691 123.64 126.098 123.64 126.621C123.64 127.134 123.645 127.541 123.655 127.843C123.686 128.677 123.897 129.301 124.289 129.713C124.691 130.115 125.229 130.316 125.902 130.316ZM131.849 133.558C131.748 133.558 131.663 133.523 131.593 133.453C131.522 133.392 131.487 133.307 131.487 133.196V130.663C131.487 130.562 131.522 130.477 131.593 130.406C131.663 130.336 131.748 130.301 131.849 130.301H131.97C132.362 130.301 132.648 129.989 132.829 129.366C133.01 128.743 133.101 127.772 133.101 126.455V124.419C133.101 124.309 133.136 124.223 133.206 124.163C133.277 124.093 133.362 124.057 133.463 124.057H138.831C138.942 124.057 139.027 124.093 139.088 124.163C139.158 124.223 139.193 124.309 139.193 124.419V130.286H139.872C139.982 130.286 140.068 130.321 140.128 130.391C140.199 130.452 140.234 130.537 140.234 130.648V133.196C140.234 133.307 140.199 133.392 140.128 133.453C140.068 133.523 139.982 133.558 139.872 133.558H138.635C138.525 133.558 138.434 133.523 138.364 133.453C138.293 133.382 138.258 133.297 138.258 133.196V131.899H133.463V133.196C133.463 133.307 133.427 133.392 133.357 133.453C133.297 133.523 133.211 133.558 133.101 133.558H131.849ZM137.233 130.286V125.656H135.001V126.666C135.001 128.396 134.765 129.607 134.292 130.301L137.233 130.286ZM147.879 124.057C147.989 124.057 148.075 124.093 148.135 124.163C148.205 124.223 148.241 124.309 148.241 124.419V131.537C148.241 131.638 148.205 131.723 148.135 131.794C148.075 131.864 147.989 131.899 147.879 131.899H146.597C146.496 131.899 146.411 131.864 146.34 131.794C146.27 131.723 146.235 131.638 146.235 131.537V129.23H144.893L143.4 131.673C143.309 131.824 143.184 131.899 143.023 131.899H141.771C141.68 131.899 141.605 131.869 141.545 131.809C141.484 131.749 141.454 131.678 141.454 131.598C141.454 131.507 141.484 131.427 141.545 131.357L143.128 128.868C142.656 128.667 142.299 128.376 142.057 127.994C141.816 127.601 141.696 127.139 141.696 126.606C141.696 125.762 141.957 125.128 142.48 124.706C143.013 124.274 143.787 124.057 144.802 124.057H147.879ZM146.265 125.49H144.847C144.375 125.49 144.028 125.576 143.807 125.747C143.596 125.917 143.49 126.204 143.49 126.606C143.49 126.978 143.596 127.27 143.807 127.481C144.018 127.692 144.335 127.797 144.757 127.797H146.265V125.49ZM150.642 131.899C150.541 131.899 150.456 131.864 150.385 131.794C150.315 131.723 150.28 131.638 150.28 131.537V124.419C150.28 124.319 150.315 124.233 150.385 124.163C150.456 124.093 150.541 124.057 150.642 124.057H155.422C155.533 124.057 155.618 124.093 155.679 124.163C155.749 124.223 155.784 124.309 155.784 124.419V125.279C155.784 125.39 155.749 125.48 155.679 125.55C155.608 125.621 155.523 125.656 155.422 125.656H152.255V131.537C152.255 131.638 152.22 131.723 152.15 131.794C152.089 131.864 152.004 131.899 151.893 131.899H150.642Z" fill="white"/>
</g>
<defs>
<filter id="filter0_d" x="23.2187" y="-7.09381" width="163.656" height="159.281" filterUnits="userSpaceOnUse" color-interpolation-filters="sRGB">
<feFlood flood-opacity="0" result="BackgroundImageFix"/>
<feColorMatrix in="SourceAlpha" type="matrix" values="0 0 0 0 0 0 0 0 0 0 0 0 0 0 0 0 0 0 127 0"/>
<feOffset/>
<feGaussianBlur stdDeviation="5"/>
<feColorMatrix type="matrix" values="0 0 0 0 0 0 0 0 0 0 0 0 0 0 0 0 0 0 0.15 0"/>
<feBlend mode="normal" in2="BackgroundImageFix" result="effect1_dropShadow"/>
<feBlend mode="normal" in="SourceGraphic" in2="effect1_dropShadow" result="shape"/>
</filter>
<clipPath id="clip0">
<rect width="178" height="146" fill="white"/>
</clipPath>
<clipPath id="clip1">
<rect width="35" height="13" fill="white" transform="translate(121 118)"/>
</clipPath>
</defs>
</svg>
