<svg width="312" height="149" viewBox="0 0 312 149" fill="none" xmlns="http://www.w3.org/2000/svg">
<g clip-path="url(#clip0)">
<g filter="url(#filter0_d)">
<path fill-rule="evenodd" clip-rule="evenodd" d="M21.9062 1.99993H259.813C270.858 1.99993 279.812 10.9543 279.812 21.9999V110.437C279.812 121.483 270.858 130.437 259.813 130.437H21.9062C10.8607 130.437 1.9063 121.483 1.9063 110.437V21.9999C1.9063 10.9543 10.8607 1.99993 21.9062 1.99993Z" fill="#F3D3D6"/>
</g>
<path fill-rule="evenodd" clip-rule="evenodd" d="M21.9061 2.25H291C302.046 2.25 311 11.2042 311 22.2499V110.656C311 121.702 302.046 130.656 291 130.656H21.9061C10.8604 130.656 1.90632 121.702 1.90632 110.656V22.2499C1.90632 11.2042 10.8604 2.25 21.9061 2.25Z" fill="#F7AECB"/>
<path fill-rule="evenodd" clip-rule="evenodd" d="M21.1719 29.4999C23.1998 29.4999 24.8437 31.1438 24.8437 33.1717C24.8437 35.1998 23.1998 36.8437 21.1719 36.8437C19.1439 36.8437 17.5 35.1998 17.5 33.1717C17.5 31.1438 19.1439 29.4999 21.1719 29.4999Z" fill="#F6DBDE"/>
<path fill-rule="evenodd" clip-rule="evenodd" d="M45.9531 99.2186C47.981 99.2186 49.625 100.87 49.625 102.906C49.625 104.943 47.981 106.594 45.9531 106.594C43.9252 106.594 42.2812 104.943 42.2812 102.906C42.2812 100.87 43.9252 99.2186 45.9531 99.2186Z" fill="#F6DBDE"/>
<path fill-rule="evenodd" clip-rule="evenodd" d="M69.7969 74.4686C71.8248 74.4686 73.4687 76.1056 73.4687 78.1249C73.4687 80.1442 71.8248 81.7812 69.7969 81.7812C67.7689 81.7812 66.125 80.1442 66.125 78.1249C66.125 76.1056 67.7689 74.4686 69.7969 74.4686Z" fill="#F6DBDE"/>
<path fill-rule="evenodd" clip-rule="evenodd" d="M89.0469 102.875C91.0748 102.875 92.7187 104.526 92.7187 106.562C92.7187 108.599 91.0748 110.25 89.0469 110.25C87.0189 110.25 85.375 108.599 85.375 106.562C85.375 104.526 87.0189 102.875 89.0469 102.875Z" fill="#F6DBDE"/>
<path fill-rule="evenodd" clip-rule="evenodd" d="M114.734 69.875C116.762 69.875 118.406 71.5189 118.406 73.5468C118.406 75.5747 116.762 77.2187 114.734 77.2187C112.706 77.2187 111.062 75.5747 111.062 73.5468C111.062 71.5189 112.706 69.875 114.734 69.875Z" fill="#F6DBDE"/>
<path fill-rule="evenodd" clip-rule="evenodd" d="M164.266 25.8436C166.294 25.8436 167.937 27.4877 167.937 29.5156C167.937 31.5435 166.294 33.1874 164.266 33.1874C162.238 33.1874 160.594 31.5435 160.594 29.5156C160.594 27.4877 162.238 25.8436 164.266 25.8436Z" fill="#F6DBDE"/>
<path fill-rule="evenodd" clip-rule="evenodd" d="M224.797 33.1874C226.825 33.1874 228.469 34.8314 228.469 36.8593C228.469 38.8872 226.825 40.5311 224.797 40.5311C222.769 40.5311 221.125 38.8872 221.125 36.8593C221.125 34.8314 222.769 33.1874 224.797 33.1874Z" fill="#F6DBDE"/>
<path fill-rule="evenodd" clip-rule="evenodd" d="M289.906 8.40621C291.926 8.40621 293.562 10.0501 293.562 12.078C293.562 14.1059 291.926 15.75 289.906 15.75C287.887 15.75 286.25 14.1059 286.25 12.078C286.25 10.0501 287.887 8.40621 289.906 8.40621Z" fill="#F6DBDE"/>
<path fill-rule="evenodd" clip-rule="evenodd" d="M165.172 57.0312C167.2 57.0312 168.844 58.6751 168.844 60.703C168.844 62.7309 167.2 64.375 165.172 64.375C163.144 64.375 161.5 62.7309 161.5 60.703C161.5 58.6751 163.144 57.0312 165.172 57.0312Z" fill="#F6DBDE"/>
<path fill-rule="evenodd" clip-rule="evenodd" d="M202.766 53.3749C204.794 53.3749 206.437 55.0119 206.437 57.0312C206.437 59.0505 204.794 60.6875 202.766 60.6875C200.738 60.6875 199.094 59.0505 199.094 57.0312C199.094 55.0119 200.738 53.3749 202.766 53.3749Z" fill="#F6DBDE"/>
<path fill-rule="evenodd" clip-rule="evenodd" d="M260.547 69.875C262.575 69.875 264.219 71.5189 264.219 73.5468C264.219 75.5747 262.575 77.2187 260.547 77.2187C258.519 77.2187 256.875 75.5747 256.875 73.5468C256.875 71.5189 258.519 69.875 260.547 69.875Z" fill="#F6DBDE"/>
<path fill-rule="evenodd" clip-rule="evenodd" d="M266.984 39.5936C269.012 39.5936 270.656 41.2377 270.656 43.2656C270.656 45.2935 269.012 46.9374 266.984 46.9374C264.956 46.9374 263.312 45.2935 263.312 43.2656C263.312 41.2377 264.956 39.5936 266.984 39.5936Z" fill="#F6DBDE"/>
<path fill-rule="evenodd" clip-rule="evenodd" d="M126.641 20.3436C128.669 20.3436 130.312 21.9877 130.312 24.0156C130.312 26.0435 128.669 27.6874 126.641 27.6874C124.613 27.6874 122.969 26.0435 122.969 24.0156C122.969 21.9877 124.613 20.3436 126.641 20.3436Z" fill="#F6DBDE"/>
<path fill-rule="evenodd" clip-rule="evenodd" d="M92.7187 49.6875C94.738 49.6875 96.375 51.3313 96.375 53.3592C96.375 55.3871 94.738 57.0312 92.7187 57.0312C90.6994 57.0312 89.0625 55.3871 89.0625 53.3592C89.0625 51.3313 90.6994 49.6875 92.7187 49.6875Z" fill="#F6DBDE"/>
<path fill-rule="evenodd" clip-rule="evenodd" d="M10.1719 47.8437C11.6993 47.8437 12.9375 49.0819 12.9375 50.6093C12.9375 52.1367 11.6993 53.3749 10.1719 53.3749C8.64445 53.3749 7.40623 52.1367 7.40623 50.6093C7.40623 49.0819 8.64445 47.8437 10.1719 47.8437Z" fill="white"/>
<path fill-rule="evenodd" clip-rule="evenodd" d="M61.5312 115.75C63.05 115.75 64.2813 116.981 64.2813 118.5C64.2813 120.019 63.05 121.25 61.5312 121.25C60.0125 121.25 58.7812 120.019 58.7812 118.5C58.7812 116.981 60.0125 115.75 61.5312 115.75Z" fill="white"/>
<path fill-rule="evenodd" clip-rule="evenodd" d="M102.812 116.656C104.331 116.656 105.562 117.894 105.562 119.422C105.562 120.949 104.331 122.187 102.812 122.187C101.294 122.187 100.062 120.949 100.062 119.422C100.062 117.894 101.294 116.656 102.812 116.656Z" fill="white"/>
<path fill-rule="evenodd" clip-rule="evenodd" d="M120.219 96.4687C121.738 96.4687 122.969 97.7069 122.969 99.2343C122.969 100.762 121.738 102 120.219 102C118.7 102 117.469 100.762 117.469 99.2343C117.469 97.7069 118.7 96.4687 120.219 96.4687Z" fill="white"/>
<path fill-rule="evenodd" clip-rule="evenodd" d="M138.562 45.0936C140.081 45.0936 141.312 46.3249 141.312 47.8437C141.312 49.3624 140.081 50.5937 138.562 50.5937C137.044 50.5937 135.812 49.3624 135.812 47.8437C135.812 46.3249 137.044 45.0936 138.562 45.0936Z" fill="white"/>
<path fill-rule="evenodd" clip-rule="evenodd" d="M112.906 39.5936C114.425 39.5936 115.656 40.8249 115.656 42.3437C115.656 43.8625 114.425 45.0936 112.906 45.0936C111.387 45.0936 110.156 43.8625 110.156 42.3437C110.156 40.8249 111.387 39.5936 112.906 39.5936Z" fill="white"/>
<path fill-rule="evenodd" clip-rule="evenodd" d="M99.125 10.2499C100.644 10.2499 101.875 11.4812 101.875 12.9999C101.875 14.5187 100.644 15.75 99.125 15.75C97.6062 15.75 96.375 14.5187 96.375 12.9999C96.375 11.4812 97.6062 10.2499 99.125 10.2499Z" fill="white"/>
<path fill-rule="evenodd" clip-rule="evenodd" d="M151.406 7.5C152.925 7.5 154.156 8.73112 154.156 10.2499C154.156 11.7687 152.925 12.9999 151.406 12.9999C149.887 12.9999 148.656 11.7687 148.656 10.2499C148.656 8.73112 149.887 7.5 151.406 7.5Z" fill="white"/>
<path fill-rule="evenodd" clip-rule="evenodd" d="M222.953 10.2499C224.481 10.2499 225.719 11.4812 225.719 12.9999C225.719 14.5187 224.481 15.75 222.953 15.75C221.426 15.75 220.187 14.5187 220.187 12.9999C220.187 11.4812 221.426 10.2499 222.953 10.2499Z" fill="white"/>
<path fill-rule="evenodd" clip-rule="evenodd" d="M270.656 17.5937C272.175 17.5937 273.406 18.825 273.406 20.3436C273.406 21.8624 272.175 23.0937 270.656 23.0937C269.137 23.0937 267.906 21.8624 267.906 20.3436C267.906 18.825 269.137 17.5937 270.656 17.5937Z" fill="white"/>
<path fill-rule="evenodd" clip-rule="evenodd" d="M248.625 13.9374C250.144 13.9374 251.375 15.1687 251.375 16.6875C251.375 18.2063 250.144 19.4374 248.625 19.4374C247.106 19.4374 245.875 18.2063 245.875 16.6875C245.875 15.1687 247.106 13.9374 248.625 13.9374Z" fill="white"/>
<path fill-rule="evenodd" clip-rule="evenodd" d="M244.969 46.0312C246.488 46.0312 247.719 47.2624 247.719 48.7812C247.719 50.2999 246.488 51.5312 244.969 51.5312C243.45 51.5312 242.219 50.2999 242.219 48.7812C242.219 47.2624 243.45 46.0312 244.969 46.0312Z" fill="white"/>
<path fill-rule="evenodd" clip-rule="evenodd" d="M289.906 81.7812C291.425 81.7812 292.656 83.0123 292.656 84.5312C292.656 86.05 291.425 87.2812 289.906 87.2812C288.387 87.2812 287.156 86.05 287.156 84.5312C287.156 83.0123 288.387 81.7812 289.906 81.7812Z" fill="white"/>
<path fill-rule="evenodd" clip-rule="evenodd" d="M241.297 79.0311C242.824 79.0311 244.062 80.2624 244.062 81.7812C244.062 83.2999 242.824 84.5312 241.297 84.5312C239.769 84.5312 238.531 83.2999 238.531 81.7812C238.531 80.2624 239.769 79.0311 241.297 79.0311Z" fill="white"/>
<path fill-rule="evenodd" clip-rule="evenodd" d="M185.344 10.2499C186.863 10.2499 188.094 11.4812 188.094 12.9999C188.094 14.5187 186.863 15.75 185.344 15.75C183.825 15.75 182.594 14.5187 182.594 12.9999C182.594 11.4812 183.825 10.2499 185.344 10.2499Z" fill="white"/>
<path fill-rule="evenodd" clip-rule="evenodd" d="M223.875 68.0312C225.394 68.0312 226.625 69.2624 226.625 70.7812C226.625 72.3 225.394 73.5311 223.875 73.5311C222.356 73.5311 221.125 72.3 221.125 70.7812C221.125 69.2624 222.356 68.0312 223.875 68.0312Z" fill="white"/>
<path fill-rule="evenodd" clip-rule="evenodd" d="M285.312 51.5312C286.831 51.5312 288.062 52.7625 288.062 54.2811C288.062 55.7999 286.831 57.0312 285.312 57.0312C283.794 57.0312 282.562 55.7999 282.562 54.2811C282.562 52.7625 283.794 51.5312 285.312 51.5312Z" fill="white"/>
<path fill-rule="evenodd" clip-rule="evenodd" d="M292.656 31.3437C294.175 31.3437 295.406 32.5749 295.406 34.0937C295.406 35.6124 294.175 36.8437 292.656 36.8437C291.137 36.8437 289.906 35.6124 289.906 34.0937C289.906 32.5749 291.137 31.3437 292.656 31.3437Z" fill="white"/>
<path fill-rule="evenodd" clip-rule="evenodd" d="M180.75 39.5936C182.269 39.5936 183.5 40.8249 183.5 42.3437C183.5 43.8625 182.269 45.0936 180.75 45.0936C179.231 45.0936 178 43.8625 178 42.3437C178 40.8249 179.231 39.5936 180.75 39.5936Z" fill="white"/>
<path fill-rule="evenodd" clip-rule="evenodd" d="M167 77.2187C168.519 77.2187 169.75 78.4498 169.75 79.9686C169.75 81.4875 168.519 82.7187 167 82.7187C165.481 82.7187 164.25 81.4875 164.25 79.9686C164.25 78.4498 165.481 77.2187 167 77.2187Z" fill="white"/>
<path fill-rule="evenodd" clip-rule="evenodd" d="M200.031 34.0937C201.55 34.0937 202.781 35.3249 202.781 36.8437C202.781 38.3625 201.55 39.5936 200.031 39.5936C198.512 39.5936 197.281 38.3625 197.281 36.8437C197.281 35.3249 198.512 34.0937 200.031 34.0937Z" fill="white"/>
<path fill-rule="evenodd" clip-rule="evenodd" d="M86.2969 81.7812C87.8243 81.7812 89.0625 83.0123 89.0625 84.5312C89.0625 86.05 87.8243 87.2812 86.2969 87.2812C84.7694 87.2812 83.5313 86.05 83.5313 84.5312C83.5313 83.0123 84.7694 81.7812 86.2969 81.7812Z" fill="white"/>
<path fill-rule="evenodd" clip-rule="evenodd" d="M138.562 76.2812C140.081 76.2812 141.312 77.5123 141.312 79.0311C141.312 80.5499 140.081 81.7812 138.562 81.7812C137.044 81.7812 135.812 80.5499 135.812 79.0311C135.812 77.5123 137.044 76.2812 138.562 76.2812Z" fill="white"/>
<rect x="1" y="8" width="96" height="141" fill="black" fill-opacity="0.01"/>
</g>
<g clip-path="url(#clip1)">
<path d="M165.544 113.676C165.434 113.676 165.344 113.646 165.274 113.586C165.204 113.516 165.169 113.426 165.169 113.316V103.555C165.169 103.445 165.204 103.355 165.274 103.285C165.344 103.215 165.434 103.18 165.544 103.18H166.729C166.939 103.18 167.089 103.275 167.179 103.465L170.072 108.863L172.996 103.465C173.096 103.275 173.246 103.18 173.446 103.18H174.615C174.725 103.18 174.815 103.215 174.885 103.285C174.955 103.355 174.99 103.445 174.99 103.555V113.316C174.99 113.426 174.955 113.516 174.885 113.586C174.815 113.646 174.725 113.676 174.615 113.676H173.356C173.256 113.676 173.171 113.641 173.101 113.571C173.031 113.501 172.996 113.416 172.996 113.316V106.824L170.897 110.827C170.767 111.047 170.597 111.157 170.387 111.157H169.773C169.563 111.157 169.393 111.047 169.263 110.827L167.164 106.824V113.316C167.164 113.416 167.129 113.501 167.059 113.571C166.999 113.641 166.914 113.676 166.804 113.676H165.544ZM179.407 113.826C178.897 113.826 178.427 113.726 177.997 113.526C177.577 113.316 177.243 113.036 176.993 112.686C176.753 112.336 176.633 111.951 176.633 111.532C176.633 110.852 176.908 110.302 177.457 109.882C178.007 109.463 178.762 109.178 179.721 109.028L181.776 108.728V108.413C181.776 107.973 181.666 107.643 181.446 107.423C181.226 107.203 180.871 107.094 180.381 107.094C180.051 107.094 179.781 107.159 179.572 107.288C179.372 107.408 179.212 107.528 179.092 107.648C178.972 107.778 178.892 107.863 178.852 107.903C178.812 108.023 178.737 108.083 178.627 108.083H177.472C177.382 108.083 177.302 108.053 177.233 107.993C177.173 107.933 177.143 107.853 177.143 107.753C177.153 107.503 177.273 107.218 177.502 106.899C177.742 106.579 178.107 106.304 178.597 106.074C179.087 105.844 179.686 105.729 180.396 105.729C181.576 105.729 182.435 105.994 182.975 106.524C183.515 107.054 183.785 107.748 183.785 108.608V113.316C183.785 113.416 183.75 113.501 183.68 113.571C183.62 113.641 183.535 113.676 183.425 113.676H182.21C182.11 113.676 182.025 113.641 181.956 113.571C181.886 113.501 181.851 113.416 181.851 113.316V112.731C181.631 113.051 181.316 113.316 180.906 113.526C180.506 113.726 180.006 113.826 179.407 113.826ZM179.916 112.401C180.466 112.401 180.916 112.221 181.266 111.861C181.616 111.502 181.791 110.977 181.791 110.287V109.972L180.291 110.212C179.711 110.302 179.272 110.447 178.972 110.647C178.682 110.847 178.537 111.092 178.537 111.382C178.537 111.702 178.672 111.951 178.942 112.131C179.212 112.311 179.537 112.401 179.916 112.401ZM185.468 113.676C185.368 113.676 185.278 113.641 185.198 113.571C185.128 113.491 185.093 113.401 185.093 113.301V112.371C185.093 112.271 185.123 112.191 185.183 112.131C185.243 112.061 185.328 112.021 185.438 112.011C185.878 111.991 186.193 111.692 186.383 111.112C186.583 110.522 186.683 109.572 186.683 108.263V106.239C186.683 106.129 186.718 106.044 186.788 105.984C186.858 105.914 186.943 105.879 187.043 105.879H192.365C192.465 105.879 192.55 105.914 192.62 105.984C192.69 106.054 192.725 106.139 192.725 106.239V113.316C192.725 113.416 192.69 113.501 192.62 113.571C192.55 113.641 192.465 113.676 192.365 113.676H191.121C191.021 113.676 190.936 113.641 190.866 113.571C190.796 113.501 190.761 113.416 190.761 113.316V107.468H188.557V108.473C188.557 109.772 188.457 110.797 188.257 111.547C188.067 112.296 187.747 112.841 187.298 113.181C186.858 113.511 186.248 113.676 185.468 113.676ZM205.568 109.118C205.578 109.238 205.583 109.458 205.583 109.777C205.583 110.097 205.578 110.317 205.568 110.437C205.518 111.487 205.173 112.316 204.533 112.926C203.894 113.526 202.989 113.826 201.819 113.826C200.66 113.826 199.76 113.531 199.121 112.941C198.491 112.341 198.141 111.527 198.071 110.497H196.707V113.316C196.707 113.416 196.672 113.501 196.602 113.571C196.542 113.641 196.457 113.676 196.347 113.676H195.102C195.002 113.676 194.917 113.641 194.847 113.571C194.777 113.501 194.742 113.416 194.742 113.316V106.239C194.742 106.139 194.777 106.054 194.847 105.984C194.917 105.914 195.002 105.879 195.102 105.879H196.347C196.457 105.879 196.542 105.914 196.602 105.984C196.672 106.044 196.707 106.129 196.707 106.239V108.923H198.086C198.176 107.933 198.541 107.154 199.181 106.584C199.83 106.014 200.71 105.729 201.819 105.729C202.969 105.729 203.869 106.034 204.518 106.644C205.168 107.253 205.518 108.078 205.568 109.118ZM203.529 110.362C203.539 110.262 203.544 110.067 203.544 109.777C203.544 109.488 203.539 109.293 203.529 109.193C203.499 108.543 203.339 108.053 203.049 107.723C202.759 107.383 202.349 107.213 201.819 107.213C201.29 107.213 200.88 107.383 200.59 107.723C200.3 108.053 200.14 108.543 200.11 109.193L200.095 109.777L200.11 110.362C200.14 111.012 200.3 111.507 200.59 111.847C200.88 112.176 201.29 112.341 201.819 112.341C202.349 112.341 202.759 112.176 203.049 111.847C203.339 111.507 203.499 111.012 203.529 110.362ZM214.429 113.211C214.479 113.261 214.504 113.326 214.504 113.406C214.504 113.486 214.474 113.551 214.414 113.601C214.354 113.651 214.279 113.676 214.189 113.676H212.675C212.515 113.676 212.375 113.601 212.255 113.451L210.306 110.512H209.196V113.316C209.196 113.416 209.161 113.501 209.091 113.571C209.021 113.641 208.936 113.676 208.836 113.676H207.607C207.507 113.676 207.422 113.641 207.352 113.571C207.282 113.501 207.247 113.416 207.247 113.316V106.239C207.247 106.139 207.282 106.054 207.352 105.984C207.422 105.914 207.507 105.879 207.607 105.879H208.836C208.936 105.879 209.021 105.914 209.091 105.984C209.161 106.054 209.196 106.139 209.196 106.239V108.923H210.306L212.105 106.119C212.165 106.039 212.225 105.979 212.285 105.939C212.345 105.899 212.425 105.879 212.525 105.879H213.859C213.959 105.879 214.039 105.904 214.099 105.954C214.159 106.004 214.189 106.069 214.189 106.149C214.189 106.209 214.164 106.274 214.114 106.344L211.97 109.642L214.429 113.211ZM218.077 113.826C217.567 113.826 217.097 113.726 216.667 113.526C216.247 113.316 215.912 113.036 215.663 112.686C215.423 112.336 215.303 111.951 215.303 111.532C215.303 110.852 215.578 110.302 216.127 109.882C216.677 109.463 217.432 109.178 218.391 109.028L220.446 108.728V108.413C220.446 107.973 220.336 107.643 220.116 107.423C219.896 107.203 219.541 107.094 219.051 107.094C218.721 107.094 218.451 107.159 218.241 107.288C218.042 107.408 217.882 107.528 217.762 107.648C217.642 107.778 217.562 107.863 217.522 107.903C217.482 108.023 217.407 108.083 217.297 108.083H216.142C216.052 108.083 215.972 108.053 215.902 107.993C215.842 107.933 215.812 107.853 215.812 107.753C215.822 107.503 215.942 107.218 216.172 106.899C216.412 106.579 216.777 106.304 217.267 106.074C217.757 105.844 218.356 105.729 219.066 105.729C220.246 105.729 221.105 105.994 221.645 106.524C222.185 107.054 222.455 107.748 222.455 108.608V113.316C222.455 113.416 222.42 113.501 222.35 113.571C222.29 113.641 222.205 113.676 222.095 113.676H220.88C220.78 113.676 220.695 113.641 220.625 113.571C220.555 113.501 220.52 113.416 220.52 113.316V112.731C220.301 113.051 219.986 113.316 219.576 113.526C219.176 113.726 218.676 113.826 218.077 113.826ZM218.586 112.401C219.136 112.401 219.586 112.221 219.936 111.861C220.286 111.502 220.461 110.977 220.461 110.287V109.972L218.961 110.212C218.381 110.302 217.942 110.447 217.642 110.647C217.352 110.847 217.207 111.092 217.207 111.382C217.207 111.702 217.342 111.951 217.612 112.131C217.882 112.311 218.206 112.401 218.586 112.401ZM232.58 105.879C232.66 105.879 232.73 105.909 232.79 105.969C232.86 106.029 232.895 106.094 232.895 106.164V113.361C232.895 113.451 232.865 113.526 232.805 113.586C232.745 113.646 232.665 113.676 232.565 113.676H231.275C231.175 113.676 231.095 113.646 231.035 113.586C230.985 113.526 230.96 113.451 230.96 113.361V109.163L229.356 112.116C229.286 112.236 229.216 112.326 229.146 112.386C229.086 112.446 228.996 112.476 228.876 112.476H228.381C228.271 112.476 228.182 112.446 228.112 112.386C228.042 112.326 227.977 112.236 227.917 112.116L226.312 109.223V113.361C226.312 113.451 226.282 113.526 226.222 113.586C226.162 113.646 226.087 113.676 225.997 113.676H224.708C224.608 113.676 224.528 113.646 224.468 113.586C224.408 113.526 224.378 113.451 224.378 113.361V106.164C224.378 106.094 224.408 106.029 224.468 105.969C224.528 105.909 224.598 105.879 224.678 105.879H225.937C226.107 105.879 226.237 105.964 226.327 106.134L228.636 110.332L230.945 106.134C231.035 105.964 231.165 105.879 231.335 105.879H232.58ZM238.047 115.325C237.947 115.325 237.862 115.29 237.792 115.22C237.722 115.16 237.687 115.075 237.687 114.965V112.446C237.687 112.346 237.722 112.261 237.792 112.191C237.862 112.121 237.947 112.086 238.047 112.086H238.167C238.557 112.086 238.842 111.777 239.021 111.157C239.201 110.537 239.291 109.572 239.291 108.263V106.239C239.291 106.129 239.326 106.044 239.396 105.984C239.466 105.914 239.551 105.879 239.651 105.879H244.989C245.099 105.879 245.184 105.914 245.244 105.984C245.314 106.044 245.349 106.129 245.349 106.239V112.071H246.023C246.133 112.071 246.218 112.106 246.278 112.176C246.348 112.236 246.383 112.321 246.383 112.431V114.965C246.383 115.075 246.348 115.16 246.278 115.22C246.218 115.29 246.133 115.325 246.023 115.325H244.794C244.684 115.325 244.594 115.29 244.524 115.22C244.454 115.15 244.419 115.065 244.419 114.965V113.676H239.651V114.965C239.651 115.075 239.616 115.16 239.546 115.22C239.486 115.29 239.401 115.325 239.291 115.325H238.047ZM243.4 112.071V107.468H241.181V108.473C241.181 110.192 240.946 111.397 240.476 112.086L243.4 112.071ZM251.21 113.826C250.041 113.826 249.136 113.526 248.496 112.926C247.857 112.316 247.512 111.487 247.462 110.437L247.447 109.777L247.462 109.118C247.512 108.078 247.862 107.253 248.511 106.644C249.161 106.034 250.061 105.729 251.21 105.729C252.36 105.729 253.259 106.034 253.909 106.644C254.559 107.253 254.909 108.078 254.959 109.118C254.969 109.238 254.974 109.458 254.974 109.777C254.974 110.097 254.969 110.317 254.959 110.437C254.909 111.487 254.564 112.316 253.924 112.926C253.284 113.526 252.38 113.826 251.21 113.826ZM251.21 112.341C251.74 112.341 252.15 112.176 252.44 111.847C252.73 111.507 252.889 111.012 252.919 110.362C252.929 110.262 252.934 110.067 252.934 109.777C252.934 109.488 252.929 109.293 252.919 109.193C252.889 108.543 252.73 108.053 252.44 107.723C252.15 107.383 251.74 107.213 251.21 107.213C250.68 107.213 250.271 107.383 249.981 107.723C249.691 108.053 249.531 108.543 249.501 109.193L249.486 109.777L249.501 110.362C249.531 111.012 249.691 111.507 249.981 111.847C250.271 112.176 250.68 112.341 251.21 112.341ZM260.436 116.524C260.336 116.524 260.251 116.49 260.181 116.42C260.111 116.36 260.076 116.275 260.076 116.165V106.239C260.076 106.129 260.111 106.044 260.181 105.984C260.251 105.914 260.336 105.879 260.436 105.879H261.62C261.73 105.879 261.815 105.914 261.875 105.984C261.945 106.044 261.98 106.129 261.98 106.239V106.839C262.54 106.099 263.34 105.729 264.379 105.729C265.389 105.729 266.163 106.049 266.703 106.689C267.243 107.318 267.533 108.173 267.573 109.253C267.583 109.373 267.588 109.547 267.588 109.777C267.588 110.017 267.583 110.197 267.573 110.317C267.533 111.367 267.243 112.216 266.703 112.866C266.163 113.506 265.389 113.826 264.379 113.826C263.37 113.826 262.6 113.471 262.07 112.761V116.165C262.07 116.275 262.035 116.36 261.965 116.42C261.905 116.49 261.82 116.524 261.71 116.524H260.436ZM263.824 112.221C264.904 112.221 265.479 111.557 265.549 110.227C265.559 110.127 265.564 109.977 265.564 109.777C265.564 109.577 265.559 109.428 265.549 109.328C265.479 107.998 264.904 107.333 263.824 107.333C263.245 107.333 262.815 107.518 262.535 107.888C262.255 108.258 262.1 108.713 262.07 109.253L262.055 109.822L262.07 110.407C262.09 110.907 262.245 111.337 262.535 111.697C262.835 112.046 263.265 112.221 263.824 112.221ZM272.72 113.826C271.55 113.826 270.645 113.526 270.006 112.926C269.366 112.316 269.021 111.487 268.971 110.437L268.956 109.777L268.971 109.118C269.021 108.078 269.371 107.253 270.021 106.644C270.67 106.034 271.57 105.729 272.72 105.729C273.869 105.729 274.769 106.034 275.418 106.644C276.068 107.253 276.418 108.078 276.468 109.118C276.478 109.238 276.483 109.458 276.483 109.777C276.483 110.097 276.478 110.317 276.468 110.437C276.418 111.487 276.073 112.316 275.433 112.926C274.794 113.526 273.889 113.826 272.72 113.826ZM272.72 112.341C273.249 112.341 273.659 112.176 273.949 111.847C274.239 111.507 274.399 111.012 274.429 110.362C274.439 110.262 274.444 110.067 274.444 109.777C274.444 109.488 274.439 109.293 274.429 109.193C274.399 108.543 274.239 108.053 273.949 107.723C273.659 107.383 273.249 107.213 272.72 107.213C272.19 107.213 271.78 107.383 271.49 107.723C271.2 108.053 271.04 108.543 271.01 109.193L270.995 109.777L271.01 110.362C271.04 111.012 271.2 111.507 271.49 111.847C271.78 112.176 272.19 112.341 272.72 112.341ZM285.326 113.211C285.376 113.261 285.401 113.326 285.401 113.406C285.401 113.486 285.371 113.551 285.311 113.601C285.251 113.651 285.176 113.676 285.086 113.676H283.572C283.412 113.676 283.272 113.601 283.152 113.451L281.203 110.512H280.093V113.316C280.093 113.416 280.058 113.501 279.988 113.571C279.918 113.641 279.833 113.676 279.733 113.676H278.504C278.404 113.676 278.319 113.641 278.249 113.571C278.179 113.501 278.144 113.416 278.144 113.316V106.239C278.144 106.139 278.179 106.054 278.249 105.984C278.319 105.914 278.404 105.879 278.504 105.879H279.733C279.833 105.879 279.918 105.914 279.988 105.984C280.058 106.054 280.093 106.139 280.093 106.239V108.923H281.203L283.002 106.119C283.062 106.039 283.122 105.979 283.182 105.939C283.242 105.899 283.322 105.879 283.422 105.879H284.756C284.856 105.879 284.936 105.904 284.996 105.954C285.056 106.004 285.086 106.069 285.086 106.149C285.086 106.209 285.061 106.274 285.011 106.344L282.867 109.642L285.326 113.211ZM293.622 105.879C293.702 105.879 293.772 105.909 293.832 105.969C293.902 106.029 293.937 106.099 293.937 106.179C293.937 106.249 293.917 106.329 293.877 106.419L291.028 113.226C290.718 113.966 290.438 114.555 290.188 114.995C289.938 115.435 289.629 115.8 289.259 116.09C288.889 116.38 288.444 116.524 287.924 116.524H287.265C287.165 116.524 287.08 116.49 287.01 116.42C286.94 116.36 286.905 116.275 286.905 116.165V115.31C286.905 115.21 286.94 115.125 287.01 115.055C287.08 114.985 287.165 114.95 287.265 114.95H287.729C288.029 114.95 288.254 114.865 288.404 114.695C288.554 114.525 288.734 114.186 288.944 113.676L289.109 113.271L286.155 106.419C286.115 106.329 286.095 106.259 286.095 106.209C286.105 106.119 286.14 106.044 286.2 105.984C286.26 105.914 286.335 105.879 286.425 105.879H287.624C287.804 105.879 287.934 105.974 288.014 106.164L290.008 111.097L292.063 106.164C292.132 105.974 292.272 105.879 292.482 105.879H293.622Z" fill="white"/>
</g>
<defs>
<filter id="filter0_d" x="-8.0937" y="-8.00006" width="297.906" height="148.437" filterUnits="userSpaceOnUse" color-interpolation-filters="sRGB">
<feFlood flood-opacity="0" result="BackgroundImageFix"/>
<feColorMatrix in="SourceAlpha" type="matrix" values="0 0 0 0 0 0 0 0 0 0 0 0 0 0 0 0 0 0 127 0"/>
<feOffset/>
<feGaussianBlur stdDeviation="5"/>
<feColorMatrix type="matrix" values="0 0 0 0 0 0 0 0 0 0 0 0 0 0 0 0 0 0 0.15 0"/>
<feBlend mode="normal" in2="BackgroundImageFix" result="effect1_dropShadow"/>
<feBlend mode="normal" in="SourceGraphic" in2="effect1_dropShadow" result="shape"/>
</filter>
<clipPath id="clip0">
<rect width="312" height="149" fill="white"/>
</clipPath>
<clipPath id="clip1">
<rect width="130" height="14" fill="white" transform="translate(164 101)"/>
</clipPath>
</defs>
</svg>
